<svg width="22" height="14" viewBox="0 0 22 14" fill="none" xmlns="http://www.w3.org/2000/svg">
<path d="M1.71999 2.65001C1.91555 2.70743 2.10354 2.788 2.27999 2.89001C2.89981 3.25994 3.60817 3.45526 4.32999 3.45526C5.05181 3.45526 5.76018 3.25994 6.37999 2.89001C6.77045 2.66917 7.21141 2.5531 7.65999 2.5531C8.10858 2.5531 8.54953 2.66917 8.93999 2.89001C9.56729 3.2487 10.2774 3.43739 11 3.43739C11.7226 3.43739 12.4327 3.2487 13.06 2.89001C13.4505 2.66917 13.8914 2.5531 14.34 2.5531C14.7886 2.5531 15.2295 2.66917 15.62 2.89001C16.2537 3.2522 16.9701 3.44506 17.7 3.45001C18.4052 3.44856 19.0966 3.25495 19.7 2.89001C19.8764 2.788 20.0644 2.70743 20.26 2.65001C20.5146 2.57575 20.7293 2.40339 20.8568 2.17084C20.9843 1.9383 21.0143 1.66462 20.94 1.41001C20.8657 1.1554 20.6934 0.940721 20.4608 0.813197C20.2283 0.685672 19.9546 0.655748 19.7 0.730009C19.3494 0.838208 19.0135 0.989355 18.7 1.18001C18.3814 1.3663 18.019 1.46449 17.65 1.46449C17.281 1.46449 16.9186 1.3663 16.6 1.18001C15.9066 0.791081 15.125 0.586823 14.33 0.586823C13.535 0.586823 12.7533 0.791081 12.06 1.18001C11.738 1.36706 11.3723 1.46559 11 1.46559C10.6276 1.46559 10.2619 1.36706 9.93999 1.18001C9.24664 0.791081 8.46498 0.586823 7.66999 0.586823C6.875 0.586823 6.09335 0.791081 5.39999 1.18001C5.08143 1.3663 4.71903 1.46449 4.34999 1.46449C3.98095 1.46449 3.61856 1.3663 3.29999 1.18001C2.98649 0.989355 2.6506 0.838208 2.29999 0.730009C2.04538 0.655748 1.7717 0.685672 1.53916 0.813197C1.30661 0.940721 1.13425 1.1554 1.05999 1.41001C0.985731 1.66462 1.01565 1.9383 1.14318 2.17084C1.2707 2.40339 1.48538 2.57575 1.73999 2.65001H1.71999ZM19.72 10.73C19.3694 10.8382 19.0335 10.9894 18.72 11.18C18.4014 11.3663 18.039 11.4645 17.67 11.4645C17.301 11.4645 16.9386 11.3663 16.62 11.18C15.9266 10.7911 15.145 10.5868 14.35 10.5868C13.555 10.5868 12.7733 10.7911 12.08 11.18C11.758 11.3671 11.3923 11.4656 11.02 11.4656C10.6476 11.4656 10.2819 11.3671 9.95999 11.18C9.26664 10.7911 8.48498 10.5868 7.68999 10.5868C6.895 10.5868 6.11335 10.7911 5.41999 11.18C5.10143 11.3663 4.73903 11.4645 4.36999 11.4645C4.00095 11.4645 3.63856 11.3663 3.31999 11.18C3.00649 10.9894 2.6706 10.8382 2.31999 10.73C2.19392 10.6932 2.06185 10.6817 1.9313 10.6959C1.80076 10.7102 1.6743 10.7501 1.55916 10.8132C1.44401 10.8763 1.34243 10.9615 1.26022 11.0639C1.178 11.1663 1.11676 11.2839 1.07999 11.41C1.04322 11.5361 1.03164 11.6682 1.04592 11.7987C1.06019 11.9292 1.10004 12.0557 1.16318 12.1708C1.22632 12.286 1.31153 12.3876 1.41393 12.4698C1.51633 12.552 1.63392 12.6132 1.75999 12.65C1.95555 12.7074 2.14354 12.788 2.31999 12.89C2.93981 13.2599 3.64817 13.4553 4.36999 13.4553C5.09181 13.4553 5.80018 13.2599 6.41999 12.89C6.81045 12.6692 7.25141 12.5531 7.69999 12.5531C8.14858 12.5531 8.58953 12.6692 8.97999 12.89C9.60729 13.2487 10.3174 13.4374 11.04 13.4374C11.7626 13.4374 12.4727 13.2487 13.1 12.89C13.4905 12.6692 13.9314 12.5531 14.38 12.5531C14.8286 12.5531 15.2695 12.6692 15.66 12.89C16.2937 13.2522 17.0101 13.4451 17.74 13.45C18.4452 13.4486 19.1366 13.255 19.74 12.89C19.9164 12.788 20.1044 12.7074 20.3 12.65C20.5546 12.5757 20.7693 12.4034 20.8968 12.1708C21.0243 11.9383 21.0543 11.6646 20.98 11.41C20.9057 11.1554 20.7334 10.9407 20.5008 10.8132C20.2683 10.6857 19.9946 10.6557 19.74 10.73H19.72ZM19.72 5.73001C19.3694 5.83821 19.0335 5.98936 18.72 6.18001C18.4014 6.3663 18.039 6.46449 17.67 6.46449C17.301 6.46449 16.9386 6.3663 16.62 6.18001C15.9266 5.79108 15.145 5.58682 14.35 5.58682C13.555 5.58682 12.7733 5.79108 12.08 6.18001C11.758 6.36706 11.3923 6.46559 11.02 6.46559C10.6476 6.46559 10.2819 6.36706 9.95999 6.18001C9.26664 5.79108 8.48498 5.58682 7.68999 5.58682C6.895 5.58682 6.11335 5.79108 5.41999 6.18001C5.10143 6.3663 4.73903 6.46449 4.36999 6.46449C4.00095 6.46449 3.63856 6.3663 3.31999 6.18001C3.00649 5.98936 2.6706 5.83821 2.31999 5.73001C2.18905 5.68057 2.0492 5.65918 1.90947 5.6672C1.76974 5.67522 1.63325 5.71249 1.50883 5.77658C1.38441 5.84068 1.27483 5.93017 1.18718 6.03929C1.09953 6.1484 1.03576 6.2747 0.999992 6.41001C0.963221 6.53608 0.951642 6.66816 0.965916 6.7987C0.980189 6.92924 1.02004 7.0557 1.08318 7.17084C1.14632 7.28599 1.23153 7.38757 1.33393 7.46978C1.43633 7.552 1.55392 7.61324 1.67999 7.65001C1.87555 7.70743 2.06354 7.788 2.23999 7.89001C2.85981 8.25994 3.56817 8.45526 4.28999 8.45526C5.01181 8.45526 5.72018 8.25994 6.33999 7.89001C6.73045 7.66917 7.17141 7.5531 7.61999 7.5531C8.06858 7.5531 8.50953 7.66917 8.89999 7.89001C9.52729 8.2487 10.2374 8.43739 10.96 8.43739C11.6826 8.43739 12.3927 8.2487 13.02 7.89001C13.4105 7.66917 13.8514 7.5531 14.3 7.5531C14.7486 7.5531 15.1895 7.66917 15.58 7.89001C16.2137 8.2522 16.9301 8.44506 17.66 8.45001C18.3652 8.44856 19.0566 8.25495 19.66 7.89001C19.8364 7.788 20.0244 7.70743 20.22 7.65001C20.4746 7.57575 20.6893 7.40339 20.8168 7.17084C20.9443 6.9383 20.9743 6.66462 20.9 6.41001C20.8257 6.1554 20.6534 5.94072 20.4208 5.8132C20.1883 5.68567 19.9146 5.65575 19.66 5.73001H19.72Z" fill="white"/>
</svg>
