<svg width="50" height="49" viewBox="0 0 50 49" fill="none" xmlns="http://www.w3.org/2000/svg">
<path d="M46.2917 21.4584H28.0417V3.20835C28.0417 2.40165 27.7212 1.62799 27.1508 1.05757C26.5804 0.487148 25.8067 0.166687 25 0.166687C24.1933 0.166687 23.4196 0.487148 22.8492 1.05757C22.2788 1.62799 21.9583 2.40165 21.9583 3.20835V21.4584H3.70834C2.90164 21.4584 2.12798 21.7788 1.55756 22.3492C0.987133 22.9197 0.666672 23.6933 0.666672 24.5C0.666672 25.3067 0.987133 26.0804 1.55756 26.6508C2.12798 27.2212 2.90164 27.5417 3.70834 27.5417H21.9583V45.7917C21.9583 46.5984 22.2788 47.372 22.8492 47.9425C23.4196 48.5129 24.1933 48.8334 25 48.8334C25.8067 48.8334 26.5804 48.5129 27.1508 47.9425C27.7212 47.372 28.0417 46.5984 28.0417 45.7917V27.5417H46.2917C47.0984 27.5417 47.872 27.2212 48.4425 26.6508C49.0129 26.0804 49.3333 25.3067 49.3333 24.5C49.3333 23.6933 49.0129 22.9197 48.4425 22.3492C47.872 21.7788 47.0984 21.4584 46.2917 21.4584Z" fill="white" fill-opacity="0.8"/>
</svg>
