<svg width="14" height="22" viewBox="0 0 14 22" fill="none" xmlns="http://www.w3.org/2000/svg">
<path d="M8 14.28V7.5C8 7.23478 7.89464 6.98043 7.7071 6.79289C7.51957 6.60536 7.26521 6.5 7 6.5C6.73478 6.5 6.48043 6.60536 6.29289 6.79289C6.10535 6.98043 6 7.23478 6 7.5V14.28C5.69772 14.4545 5.44638 14.7051 5.27095 15.0068C5.09551 15.3086 5.0021 15.651 5 16C5 16.5304 5.21071 17.0391 5.58578 17.4142C5.96086 17.7893 6.46956 18 7 18C7.53043 18 8.03914 17.7893 8.41421 17.4142C8.78928 17.0391 9 16.5304 9 16C8.99789 15.651 8.90448 15.3086 8.72905 15.0068C8.55362 14.7051 8.30227 14.4545 8 14.28ZM11.5 12V4.5C11.5 3.30653 11.0259 2.16193 10.182 1.31802C9.33806 0.474106 8.19347 0 7 0C5.80652 0 4.66193 0.474106 3.81802 1.31802C2.9741 2.16193 2.5 3.30653 2.5 4.5V12C1.80884 12.7832 1.33412 13.7333 1.12281 14.7562C0.911494 15.7792 0.9709 16.8396 1.29515 17.8326C1.6194 18.8255 2.19727 19.7166 2.97158 20.4177C3.74589 21.1188 4.68982 21.6056 5.71 21.83C6.13379 21.9266 6.56565 21.9835 7 22C8.16062 22.0054 9.2979 21.6741 10.274 21.0461C11.2501 20.4182 12.0232 19.5207 12.4994 18.4623C12.9757 17.4038 13.1348 16.23 12.9574 15.083C12.78 13.936 12.2738 12.8651 11.5 12V12ZM9.5 19.07C8.70435 19.7755 7.66104 20.136 6.59958 20.0722C5.53812 20.0085 4.54547 19.5256 3.84 18.73C3.13452 17.9344 2.77401 16.891 2.83777 15.8296C2.90154 14.7681 3.38435 13.7755 4.18 13.07C4.27449 12.9774 4.34965 12.8669 4.40115 12.7451C4.45265 12.6232 4.47945 12.4923 4.48 12.36V4.5C4.48 3.83696 4.74339 3.20107 5.21223 2.73223C5.68107 2.26339 6.31696 2 6.98 2C7.64304 2 8.27892 2.26339 8.74776 2.73223C9.2166 3.20107 9.48 3.83696 9.48 4.5V12.44C9.48055 12.5723 9.50735 12.7032 9.55884 12.8251C9.61034 12.9469 9.68551 13.0574 9.78 13.15C10.1887 13.5449 10.5087 14.0223 10.7184 14.5505C10.9282 15.0787 11.023 15.6456 10.9965 16.2133C10.97 16.781 10.8228 17.3366 10.5648 17.843C10.3067 18.3493 9.94375 18.7949 9.5 19.15V19.07Z" fill="white"/>
</svg>
