<svg width="21" height="16" viewBox="0 0 21 16" fill="none" xmlns="http://www.w3.org/2000/svg">
<path d="M20.42 7.6C18.4 2.91 14.6 0 10.5 0C6.40001 0 2.60001 2.91 0.580006 7.6C0.524942 7.72617 0.496521 7.86234 0.496521 8C0.496521 8.13766 0.524942 8.27383 0.580006 8.4C2.60001 13.09 6.40001 16 10.5 16C14.6 16 18.4 13.09 20.42 8.4C20.4751 8.27383 20.5035 8.13766 20.5035 8C20.5035 7.86234 20.4751 7.72617 20.42 7.6V7.6ZM10.5 14C7.32001 14 4.33001 11.71 2.60001 8C4.33001 4.29 7.32001 2 10.5 2C13.68 2 16.67 4.29 18.4 8C16.67 11.71 13.68 14 10.5 14ZM10.5 4C9.70888 4 8.93552 4.2346 8.27773 4.67412C7.61993 5.11365 7.10724 5.73836 6.80449 6.46927C6.50174 7.20017 6.42252 8.00444 6.57686 8.78036C6.73121 9.55629 7.11217 10.269 7.67158 10.8284C8.23099 11.3878 8.94372 11.7688 9.71964 11.9231C10.4956 12.0775 11.2998 11.9983 12.0307 11.6955C12.7616 11.3928 13.3864 10.8801 13.8259 10.2223C14.2654 9.56448 14.5 8.79113 14.5 8C14.5 6.93913 14.0786 5.92172 13.3284 5.17157C12.5783 4.42143 11.5609 4 10.5 4V4ZM10.5 10C10.1044 10 9.71776 9.8827 9.38887 9.66294C9.05997 9.44318 8.80362 9.13082 8.65225 8.76537C8.50087 8.39991 8.46126 7.99778 8.53843 7.60982C8.61561 7.22186 8.80609 6.86549 9.08579 6.58579C9.3655 6.30608 9.72186 6.1156 10.1098 6.03843C10.4978 5.96126 10.8999 6.00087 11.2654 6.15224C11.6308 6.30362 11.9432 6.55996 12.1629 6.88886C12.3827 7.21776 12.5 7.60444 12.5 8C12.5 8.53043 12.2893 9.03914 11.9142 9.41421C11.5391 9.78929 11.0304 10 10.5 10Z" fill="white"/>
</svg>
