<svg width="20" height="18" viewBox="0 0 20 18" fill="none" xmlns="http://www.w3.org/2000/svg">
<path d="M1.5 6C1.69778 6 1.89112 5.94135 2.05557 5.83147C2.22002 5.72159 2.34819 5.56541 2.42388 5.38268C2.49957 5.19996 2.51937 4.99889 2.48079 4.80491C2.4422 4.61093 2.34696 4.43275 2.20711 4.29289C2.06725 4.15304 1.88907 4.0578 1.69509 4.01921C1.50111 3.98063 1.30004 4.00043 1.11732 4.07612C0.93459 4.15181 0.778412 4.27998 0.66853 4.44443C0.558649 4.60888 0.5 4.80222 0.5 5C0.5 5.26522 0.605357 5.51957 0.792893 5.70711C0.98043 5.89464 1.23478 6 1.5 6ZM5.5 6H12.5C13.2956 6 14.0587 5.68393 14.6213 5.12132C15.1839 4.55871 15.5 3.79565 15.5 3C15.5 2.20435 15.1839 1.44129 14.6213 0.87868C14.0587 0.316071 13.2956 0 12.5 0C11.9739 0.00217645 11.4573 0.139943 11 0.4C10.8854 0.46533 10.7849 0.552684 10.7042 0.657031C10.6235 0.761378 10.5643 0.880656 10.5299 1.008C10.4955 1.13534 10.4866 1.26822 10.5038 1.399C10.521 1.52978 10.5639 1.65587 10.63 1.77C10.6962 1.88375 10.7841 1.98333 10.8889 2.06302C10.9936 2.14271 11.113 2.20094 11.2403 2.23439C11.3675 2.26783 11.5002 2.27583 11.6305 2.25791C11.7609 2.24 11.8865 2.19653 12 2.13C12.1538 2.04722 12.3253 2.00264 12.5 2C12.7652 2 13.0196 2.10536 13.2071 2.29289C13.3946 2.48043 13.5 2.73478 13.5 3C13.5 3.26522 13.3946 3.51957 13.2071 3.70711C13.0196 3.89464 12.7652 4 12.5 4H5.5C5.23478 4 4.98043 4.10536 4.79289 4.29289C4.60536 4.48043 4.5 4.73478 4.5 5C4.5 5.26522 4.60536 5.51957 4.79289 5.70711C4.98043 5.89464 5.23478 6 5.5 6ZM1.5 10H8.5C8.76522 10 9.01957 9.89464 9.20711 9.70711C9.39464 9.51957 9.5 9.26522 9.5 9C9.5 8.73478 9.39464 8.48043 9.20711 8.29289C9.01957 8.10536 8.76522 8 8.5 8H1.5C1.23478 8 0.98043 8.10536 0.792893 8.29289C0.605357 8.48043 0.5 8.73478 0.5 9C0.5 9.26522 0.605357 9.51957 0.792893 9.70711C0.98043 9.89464 1.23478 10 1.5 10V10ZM18.5 6C18.6978 6 18.8911 5.94135 19.0556 5.83147C19.22 5.72159 19.3482 5.56541 19.4239 5.38268C19.4996 5.19996 19.5194 4.99889 19.4808 4.80491C19.4422 4.61093 19.347 4.43275 19.2071 4.29289C19.0673 4.15304 18.8891 4.0578 18.6951 4.01921C18.5011 3.98063 18.3 4.00043 18.1173 4.07612C17.9346 4.15181 17.7784 4.27998 17.6685 4.44443C17.5586 4.60888 17.5 4.80222 17.5 5C17.5 5.26522 17.6054 5.51957 17.7929 5.70711C17.9804 5.89464 18.2348 6 18.5 6ZM16.5 8H12.5C12.2348 8 11.9804 8.10536 11.7929 8.29289C11.6054 8.48043 11.5 8.73478 11.5 9C11.5 9.26522 11.6054 9.51957 11.7929 9.70711C11.9804 9.89464 12.2348 10 12.5 10H16.5C16.7652 10 17.0196 10.1054 17.2071 10.2929C17.3946 10.4804 17.5 10.7348 17.5 11C17.5 11.2652 17.3946 11.5196 17.2071 11.7071C17.0196 11.8946 16.7652 12 16.5 12C16.2348 12 15.9804 12.1054 15.7929 12.2929C15.6054 12.4804 15.5 12.7348 15.5 13C15.5 13.2652 15.6054 13.5196 15.7929 13.7071C15.9804 13.8946 16.2348 14 16.5 14C17.2956 14 18.0587 13.6839 18.6213 13.1213C19.1839 12.5587 19.5 11.7956 19.5 11C19.5 10.2044 19.1839 9.44129 18.6213 8.87868C18.0587 8.31607 17.2956 8 16.5 8V8ZM10.5 12H6.5C6.23478 12 5.98043 12.1054 5.79289 12.2929C5.60536 12.4804 5.5 12.7348 5.5 13C5.5 13.2652 5.60536 13.5196 5.79289 13.7071C5.98043 13.8946 6.23478 14 6.5 14H10.5C10.7652 14 11.0196 14.1054 11.2071 14.2929C11.3946 14.4804 11.5 14.7348 11.5 15C11.5 15.2652 11.3946 15.5196 11.2071 15.7071C11.0196 15.8946 10.7652 16 10.5 16C10.3253 15.9974 10.1538 15.9528 10 15.87C9.88618 15.7976 9.7589 15.7491 9.62582 15.7272C9.49274 15.7053 9.35661 15.7105 9.22561 15.7426C9.09462 15.7747 8.97146 15.833 8.86357 15.9139C8.75567 15.9948 8.66525 16.0967 8.59776 16.2135C8.53026 16.3302 8.48708 16.4594 8.47082 16.5933C8.45456 16.7272 8.46555 16.863 8.50312 16.9925C8.5407 17.1221 8.60409 17.2427 8.68948 17.347C8.77487 17.4514 8.88049 17.5375 9 17.6C9.4573 17.8601 9.97393 17.9978 10.5 18C11.2956 18 12.0587 17.6839 12.6213 17.1213C13.1839 16.5587 13.5 15.7956 13.5 15C13.5 14.2044 13.1839 13.4413 12.6213 12.8787C12.0587 12.3161 11.2956 12 10.5 12V12ZM2.5 12H1.5C1.23478 12 0.98043 12.1054 0.792893 12.2929C0.605357 12.4804 0.5 12.7348 0.5 13C0.5 13.2652 0.605357 13.5196 0.792893 13.7071C0.98043 13.8946 1.23478 14 1.5 14H2.5C2.76522 14 3.01957 13.8946 3.20711 13.7071C3.39464 13.5196 3.5 13.2652 3.5 13C3.5 12.7348 3.39464 12.4804 3.20711 12.2929C3.01957 12.1054 2.76522 12 2.5 12Z" fill="white"/>
</svg>
